  <svg width="156" height="33" viewBox="0 0 156 33" fill="none" xmlns="http://www.w3.org/2000/svg">
                    <path
                        d="M70.3032 7.7687C70.3032 8.63513 70.2732 9.94232 70.2134 11.6903C70.1535 13.4382 70.1235 14.7491 70.1235 15.6231C70.1235 16.4443 70.131 17.6762 70.146 19.3186C70.161 20.9536 70.1684 22.1817 70.1684 23.0029C70.1684 23.2515 70.0749 23.3758 69.8877 23.3758C69.7754 23.3758 69.607 23.3645 69.3824 23.3419C69.1579 23.3193 68.9894 23.308 68.8772 23.308C68.7574 23.308 68.574 23.3193 68.327 23.3419C68.0799 23.3645 67.8965 23.3758 67.7767 23.3758C67.642 23.3758 67.4811 23.2515 67.2939 23.0029C65.677 20.8104 63.2254 17.5406 59.9392 13.1933C59.4301 12.5303 59.1345 12.1611 59.0521 12.0858C58.9773 12.0858 58.9398 12.2403 58.9398 12.5492C58.9398 13.7094 58.9585 15.4536 58.996 17.7817C59.0334 20.1022 59.0521 21.8426 59.0521 23.0029C59.0521 23.2515 58.9773 23.3758 58.8275 23.3758C58.7003 23.3758 58.5057 23.3645 58.2437 23.3419C57.9817 23.3193 57.787 23.308 57.6598 23.308C57.525 23.308 57.3229 23.3193 57.0534 23.3419C56.7914 23.3645 56.593 23.3758 56.4583 23.3758C56.2712 23.3758 56.1776 23.3005 56.1776 23.1498C56.1776 22.321 56.215 21.0741 56.2899 19.4091C56.3722 17.7365 56.4134 16.482 56.4134 15.6457C56.4134 14.7341 56.3797 13.0916 56.3123 10.7183C56.2974 10.1005 56.2599 9.17383 56.2 7.93822L56.1888 7.7913C56.1813 7.67829 56.2712 7.61801 56.4583 7.61048C56.9449 7.60295 57.3267 7.58788 57.6036 7.56527C57.7084 7.55774 57.9068 7.5276 58.1987 7.47486C58.4458 7.42966 58.6404 7.40706 58.7826 7.40706C58.85 7.40706 58.966 7.5163 59.1307 7.73479C60.8524 10.1156 63.4874 13.6567 67.0357 18.358C67.1929 18.5539 67.3388 18.7234 67.4736 18.8666C67.526 18.5502 67.5522 17.8269 67.5522 16.6967C67.5522 15.7173 67.5147 14.2481 67.4399 12.2892C67.3725 10.3303 67.3388 8.86493 67.3388 7.89301C67.3388 7.64438 67.4137 7.52007 67.5634 7.52007C67.6982 7.52007 67.9003 7.53137 68.1698 7.55397C68.4467 7.57658 68.6526 7.58788 68.7873 7.58788C68.9296 7.58788 69.1429 7.57658 69.4274 7.55397C69.7118 7.53137 69.9252 7.52007 70.0674 7.52007C70.2246 7.52007 70.3032 7.60295 70.3032 7.7687Z"
                        fill="black" />
                    <path
                        d="M83.5754 13.1481C83.5754 13.1783 83.5642 13.2461 83.5417 13.3516C83.2498 15.0769 83.1038 16.5649 83.1038 17.8156C83.1038 17.8909 83.1974 19.5823 83.3845 22.8899L83.3958 23.0481C83.4032 23.2666 83.3022 23.3758 83.0926 23.3758C82.8905 23.3758 82.5798 23.3984 82.1606 23.4436C81.7489 23.4964 81.442 23.5227 81.2399 23.5227C81.0976 23.5227 80.9891 23.259 80.9142 22.7316C80.8394 22.2043 80.7683 21.9406 80.7009 21.9406C80.656 21.9406 80.4539 22.0875 80.0945 22.3813C79.6529 22.7429 79.2412 23.0179 78.8594 23.2063C78.268 23.5077 77.6766 23.6584 77.0853 23.6584C75.633 23.6584 74.4091 23.0745 73.4135 21.9067C72.4703 20.7916 71.9987 19.4919 71.9987 18.0077C71.9987 16.3351 72.4741 14.9526 73.4247 13.8601C74.4203 12.7224 75.7304 12.1536 77.3548 12.1536C78.5001 12.1536 79.4994 12.5529 80.3528 13.3516C80.4801 13.5022 80.6784 13.7207 80.9479 14.007C80.9704 14.0296 80.9928 14.0409 81.0153 14.0409C81.0602 14.0409 81.1238 13.8036 81.2062 13.3289C81.2885 12.8543 81.3933 12.617 81.5206 12.617C81.7227 12.617 82.1007 12.6735 82.6547 12.7865C83.2685 12.9221 83.5754 13.0426 83.5754 13.1481ZM80.7121 17.8721C80.7121 16.9454 80.4389 16.1505 79.8924 15.4875C79.316 14.7718 78.5787 14.4139 77.6804 14.4139C76.7821 14.4139 76.0335 14.768 75.4347 15.4762C74.8583 16.1543 74.5701 16.9529 74.5701 17.8721C74.5701 18.7837 74.8583 19.5748 75.4347 20.2454C76.0335 20.946 76.7821 21.2964 77.6804 21.2964C78.5562 21.2964 79.2898 20.9385 79.8812 20.2228C80.4351 19.5522 80.7121 18.7687 80.7121 17.8721Z"
                        fill="black" />
                    <path
                        d="M102.484 22.9577C102.484 23.2515 102.398 23.3984 102.226 23.3984C102.114 23.3984 101.942 23.3871 101.71 23.3645C101.485 23.3419 101.313 23.3306 101.193 23.3306C101.066 23.3306 100.875 23.3382 100.62 23.3532C100.366 23.3683 100.175 23.3758 100.048 23.3758C99.8906 23.3758 99.812 23.1988 99.812 22.8447C99.812 22.4981 99.8232 21.982 99.8457 21.2964C99.8756 20.6032 99.8906 20.0834 99.8906 19.7368C99.8906 17.8306 99.8831 16.7683 99.8681 16.5498C99.8083 15.7738 99.6511 15.2389 99.3965 14.945C99.1046 14.6286 98.5843 14.4704 97.8358 14.4704C97.3642 14.4704 96.8327 14.6964 96.2413 15.1485C95.6275 15.6231 95.3093 16.0902 95.2869 16.5498C95.2569 17.1375 95.242 18.2111 95.242 19.7707C95.242 20.1399 95.2569 20.6936 95.2869 21.432C95.3168 22.1704 95.3318 22.7241 95.3318 23.0933C95.3318 23.2967 95.2644 23.3984 95.1297 23.3984C94.9949 23.3984 94.7965 23.3871 94.5345 23.3645C94.28 23.3419 94.0854 23.3306 93.9507 23.3306C93.8309 23.3306 93.655 23.3382 93.4229 23.3532C93.1908 23.3683 93.0149 23.3758 92.8952 23.3758C92.7455 23.3758 92.6706 23.2666 92.6706 23.0481C92.6706 22.6864 92.6818 22.144 92.7043 21.4207C92.7267 20.6899 92.738 20.1436 92.738 19.782V17.0584C92.738 16.207 92.6369 15.6005 92.4348 15.2389C92.1503 14.7265 91.6076 14.4704 90.8066 14.4704C90.335 14.4704 89.7736 14.67 89.1224 15.0694C88.4037 15.5063 88.0444 15.9471 88.0444 16.3916V19.6916C88.0444 20.0683 88.0481 20.6296 88.0556 21.3755C88.0631 22.1214 88.0669 22.6789 88.0669 23.0481C88.0669 23.2666 87.9808 23.3758 87.8086 23.3758H85.7201C85.5704 23.3758 85.4955 23.2741 85.4955 23.0707C85.4955 22.4604 85.4993 21.545 85.5067 20.3245C85.5142 19.0964 85.518 18.1772 85.518 17.5669C85.518 16.1882 85.372 14.8132 85.08 13.442C85.0576 13.344 85.0464 13.2649 85.0464 13.2046C85.0464 13.1067 85.08 13.0502 85.1474 13.0351C85.4244 13.005 85.8286 12.9485 86.3601 12.8656C86.6071 12.7903 86.9777 12.7074 87.4717 12.617L87.5616 12.6057C87.6514 12.6057 87.7337 12.8731 87.8086 13.4081C87.8909 13.9355 87.9621 14.1992 88.0219 14.1992C88.0219 14.1992 88.2091 14.0334 88.5834 13.7019C89.025 13.3176 89.4667 13.0125 89.9084 12.7865C90.5446 12.455 91.1809 12.2892 91.8172 12.2892C93.5389 12.2892 94.6356 12.9974 95.1072 14.4139C95.5713 13.8111 96.1477 13.3139 96.8364 12.9221C97.57 12.5002 98.2961 12.2892 99.0148 12.2892C100.4 12.2892 101.358 12.6961 101.889 13.5098C102.271 14.1125 102.462 15.0656 102.462 16.369C102.462 16.6176 102.454 17.0019 102.439 17.5217C102.425 18.0416 102.417 18.4258 102.417 18.6745C102.417 19.1491 102.428 19.8649 102.451 20.8217C102.473 21.771 102.484 22.483 102.484 22.9577Z"
                        fill="black" />
                    <path
                        d="M115.622 13.1481C115.622 13.1783 115.611 13.2461 115.588 13.3516C115.296 15.0769 115.15 16.5649 115.15 17.8156C115.15 17.8909 115.244 19.5823 115.431 22.8899L115.442 23.0481C115.45 23.2666 115.349 23.3758 115.139 23.3758C114.937 23.3758 114.626 23.3984 114.207 23.4436C113.795 23.4964 113.488 23.5227 113.286 23.5227C113.144 23.5227 113.036 23.259 112.961 22.7316C112.886 22.2043 112.815 21.9406 112.747 21.9406C112.702 21.9406 112.5 22.0875 112.141 22.3813C111.699 22.7429 111.288 23.0179 110.906 23.2063C110.314 23.5077 109.723 23.6584 109.132 23.6584C107.68 23.6584 106.456 23.0745 105.46 21.9067C104.517 20.7916 104.045 19.4919 104.045 18.0077C104.045 16.3351 104.521 14.9526 105.471 13.8601C106.467 12.7224 107.777 12.1536 109.401 12.1536C110.547 12.1536 111.546 12.5529 112.399 13.3516C112.527 13.5022 112.725 13.7207 112.994 14.007C113.017 14.0296 113.039 14.0409 113.062 14.0409C113.107 14.0409 113.17 13.8036 113.253 13.3289C113.335 12.8543 113.44 12.617 113.567 12.617C113.769 12.617 114.147 12.6735 114.701 12.7865C115.315 12.9221 115.622 13.0426 115.622 13.1481ZM112.759 17.8721C112.759 16.9454 112.485 16.1505 111.939 15.4875C111.363 14.7718 110.625 14.4139 109.727 14.4139C108.829 14.4139 108.08 14.768 107.481 15.4762C106.905 16.1543 106.617 16.9529 106.617 17.8721C106.617 18.7837 106.905 19.5748 107.481 20.2454C108.08 20.946 108.829 21.2964 109.727 21.2964C110.603 21.2964 111.336 20.9385 111.928 20.2228C112.482 19.5522 112.759 18.7687 112.759 17.8721Z"
                        fill="black" />
                    <path
                        d="M129.624 23.2854C129.624 23.3457 129.564 23.3758 129.444 23.3758C129.302 23.3758 129.085 23.3645 128.793 23.3419C128.501 23.3193 128.284 23.308 128.142 23.308C127.985 23.308 127.749 23.3193 127.434 23.3419C127.127 23.3645 126.895 23.3758 126.738 23.3758C126.566 23.3758 126.435 23.2816 126.345 23.0933C126.106 22.581 125.424 20.995 124.302 18.3354C124.189 18.0642 123.916 17.8984 123.482 17.8382C123.385 17.8306 123.044 17.8269 122.46 17.8269C121.427 17.8269 120.813 17.8419 120.619 17.8721C120.461 17.8947 120.383 18.0868 120.383 18.4484C120.383 18.9758 120.405 19.7669 120.45 20.8217C120.503 21.869 120.529 22.6525 120.529 23.1724C120.529 23.3306 120.454 23.4097 120.304 23.4097C120.155 23.4097 119.926 23.3947 119.619 23.3645C119.32 23.3269 119.092 23.308 118.934 23.308C118.807 23.308 118.612 23.3193 118.35 23.3419C118.088 23.3645 117.894 23.3758 117.767 23.3758C117.579 23.3758 117.486 23.2892 117.486 23.1159C117.486 22.2796 117.523 21.0251 117.598 19.3526C117.68 17.6724 117.722 16.4142 117.722 15.5779C117.722 13.1971 117.636 10.6581 117.463 7.96082L117.452 7.78C117.445 7.62932 117.602 7.55397 117.924 7.55397C118.568 7.55397 119.529 7.5389 120.81 7.50877C122.097 7.4711 123.059 7.45226 123.695 7.45226C125.357 7.45226 126.69 7.85157 127.693 8.6502C128.801 9.5317 129.354 10.7824 129.354 12.4022C129.354 13.5173 129.205 14.395 128.905 15.0354C128.591 15.7135 128.007 16.3577 127.154 16.968C127.011 17.0659 126.94 17.1601 126.94 17.2505C126.94 17.356 127.386 18.358 128.277 20.2567C129.175 22.1553 129.624 23.1649 129.624 23.2854ZM126.547 13.0351C126.547 11.6714 126.158 10.7598 125.38 10.3002C124.803 9.96115 123.766 9.79163 122.269 9.79163C121.057 9.79163 120.439 9.88958 120.417 10.0855C120.364 10.4923 120.338 11.581 120.338 13.3516V15.5101C120.36 15.5252 120.409 15.5402 120.484 15.5553C120.619 15.5704 120.839 15.5892 121.146 15.6118C121.858 15.6495 122.625 15.6683 123.448 15.6683C125.514 15.6683 126.547 14.7906 126.547 13.0351Z"
                        fill="black" />
                    <path
                        d="M141.538 13.1255C141.538 13.6755 141.515 14.5081 141.47 15.6231C141.425 16.7306 141.403 17.5632 141.403 18.1207C141.403 18.6707 141.418 19.4957 141.448 20.5957C141.485 21.6882 141.504 22.5094 141.504 23.0594C141.504 23.2101 141.433 23.308 141.291 23.3532C141.231 23.3683 140.471 23.3758 139.011 23.3758C138.921 23.3758 138.865 23.0933 138.843 22.5282C138.828 21.9632 138.787 21.6806 138.719 21.6806C138.682 21.6806 138.626 21.7145 138.551 21.7823C137.301 22.8748 136.065 23.421 134.845 23.421C133.191 23.421 132.098 22.8183 131.567 21.6128C131.237 20.8669 131.072 19.5258 131.072 17.5895C131.072 15.8416 131.211 14.3611 131.488 13.1481C131.555 12.8543 131.679 12.7074 131.858 12.7074C132.076 12.7074 132.401 12.7111 132.835 12.7187C133.27 12.7262 133.595 12.73 133.812 12.73C133.962 12.73 134.037 12.8129 134.037 12.9786C134.037 13.2724 133.988 13.7622 133.891 14.4478C133.786 15.1786 133.73 15.6947 133.722 15.9961C133.7 16.4481 133.689 16.9454 133.689 17.4878C133.689 18.8063 133.782 19.6916 133.969 20.1436C134.291 20.9573 135.006 21.3642 136.114 21.3642C136.586 21.3642 137.143 21.1306 137.787 20.6635C138.468 20.1738 138.82 19.7029 138.843 19.2508C138.88 18.6858 138.899 16.6967 138.899 13.2837C138.899 12.9146 139.052 12.73 139.359 12.73H141.212C141.429 12.73 141.538 12.8618 141.538 13.1255Z"
                        fill="black" />
                    <path
                        d="M151.666 13.1255C151.666 13.2913 151.58 13.6605 151.407 14.2331C151.235 14.8057 151.116 15.092 151.048 15.092C150.711 14.9413 150.371 14.7906 150.026 14.6399C149.69 14.4892 149.319 14.4139 148.915 14.4139C147.994 14.4139 147.227 14.7567 146.613 15.4423C145.999 16.1279 145.692 16.9378 145.692 17.8721C145.692 18.7913 145.999 19.5861 146.613 20.2567C147.242 20.9498 148.009 21.2964 148.915 21.2964C149.416 21.2964 149.91 21.1721 150.397 20.9234C150.883 20.6748 151.097 20.5505 151.037 20.5505C151.134 20.5505 151.243 20.8669 151.363 21.4998C151.475 22.0724 151.531 22.468 151.531 22.6864C151.531 22.92 151.093 23.1498 150.217 23.3758C149.484 23.5642 148.941 23.6584 148.589 23.6584C147.047 23.6584 145.745 23.0782 144.682 21.918C143.641 20.7878 143.121 19.4392 143.121 17.8721C143.121 16.2748 143.63 14.9187 144.648 13.8036C145.696 12.6584 147.002 12.0858 148.567 12.0858C149.615 12.0858 150.573 12.3533 151.441 12.8882C151.591 12.9786 151.666 13.0577 151.666 13.1255Z"
                        fill="black" />
                    <path
                        d="M156 9.85944C156 10.7862 155.487 11.2495 154.462 11.2495C153.421 11.2495 152.901 10.7862 152.901 9.85944C152.901 9.44506 153.062 9.10225 153.384 8.83102C153.683 8.57486 154.042 8.44678 154.462 8.44678C154.881 8.44678 155.24 8.57863 155.54 8.84232C155.847 9.10602 156 9.44506 156 9.85944ZM155.921 12.9221C155.921 13.5022 155.884 14.38 155.809 15.5553C155.742 16.7231 155.708 17.6008 155.708 18.1885C155.708 18.7385 155.719 19.5635 155.742 20.6635C155.764 21.756 155.775 22.5734 155.775 23.1159C155.775 23.2741 155.708 23.3532 155.573 23.3532H153.384C153.227 23.3532 153.148 23.1988 153.148 22.8899C153.148 22.37 153.159 21.5902 153.182 20.5505C153.212 19.5032 153.227 18.7159 153.227 18.1885C153.227 17.6008 153.182 16.7193 153.092 15.544C153.009 14.3687 152.968 13.4872 152.968 12.8995C152.968 12.7714 153.047 12.7074 153.204 12.7074C153.339 12.7074 153.545 12.7262 153.822 12.7639C154.106 12.8016 154.319 12.8204 154.462 12.8204C154.604 12.8204 154.813 12.8016 155.09 12.7639C155.375 12.7262 155.588 12.7074 155.731 12.7074C155.858 12.7074 155.921 12.779 155.921 12.9221Z"
                        fill="black" />
                    <path fill-rule="evenodd" clip-rule="evenodd"
                        d="M2.57089 0.383205C2.44604 0.908739 2.42043 1.64288 2.50817 2.1814C2.71674 3.46095 3.44937 4.61478 4.49466 5.3099C5.04802 5.67787 5.43556 5.84704 6.64098 6.24694C8.69164 6.92724 10.0526 7.32104 12.4286 7.92167C14.0275 8.32587 14.3407 8.44186 14.9195 8.84422C15.3028 9.11068 15.753 9.58142 16.0243 9.9993C16.1368 10.1726 16.2289 10.3289 16.2289 10.3466C16.2289 10.383 16.0794 10.4109 14.7759 10.6178C10.5529 11.288 6.44893 11.5872 2.00595 11.5488C0.12651 11.5325 0 11.536 0 11.6036C0 11.7312 0.118791 12.2483 0.210893 12.5217C0.354297 12.9474 0.696971 13.5726 0.986145 13.936C1.76181 14.9109 2.86131 15.5101 4.14335 15.6567C4.49964 15.6974 4.73108 15.6934 5.51567 15.633C7.78298 15.4584 10.4715 15.1136 12.7216 14.7087C14.2945 14.4257 14.7957 14.4231 15.6478 14.6939C16.0273 14.8146 16.9058 15.2776 16.8485 15.3267C16.8058 15.3633 15.4805 16.1738 14.8773 16.5323C11.7757 18.3754 8.43745 20.0469 5.12601 21.415C4.73793 21.5753 4.40721 21.7189 4.39102 21.7341C4.31112 21.8092 5.07674 22.5743 5.548 22.8902C6.7433 23.6915 8.29687 23.8866 9.6552 23.406C10.3228 23.1699 12.9058 21.8301 14.9676 20.6505C16.2117 19.9388 16.6361 19.7679 17.3564 19.6888C17.8508 19.6345 18.4287 19.6707 18.4287 19.756C18.4287 19.8111 17.7339 20.9415 17.0854 21.9415C16.3117 23.1347 15.2499 24.6551 14.3305 25.8868C14.0246 26.2965 13.765 26.6562 13.7536 26.6862C13.7084 26.8047 14.6105 26.9332 15.2743 26.9027C16.6711 26.8387 17.9346 26.1634 18.7695 25.0346C19.1876 24.4693 19.3551 24.0963 20.1936 21.8654C20.4228 21.2555 20.6017 20.838 20.6367 20.8309C20.6855 20.8209 20.6952 20.9276 20.6932 21.457C20.6911 22.0133 20.7033 22.1351 20.788 22.408C21.1339 23.5218 21.9289 24.2767 23.0494 24.5551L23.4302 24.6497L23.2512 24.6808C22.9856 24.7269 22.5444 24.966 22.3151 25.1881C21.8707 25.6185 21.6525 26.126 21.653 26.728C21.6535 27.2581 21.7648 27.5553 22.2233 28.2515C23.0372 29.4872 23.5984 31.1485 23.6864 32.5825C23.7009 32.8181 23.7171 33.0059 23.7224 32.9999C23.7278 32.9938 23.7536 32.7635 23.7798 32.488C23.9249 30.962 24.4407 29.485 25.2885 28.168C25.6505 27.6056 25.7741 27.2994 25.8056 26.8867C25.8524 26.2725 25.6447 25.7037 25.2109 25.2585C24.9417 24.9822 24.5061 24.7351 24.1951 24.6823C24.0285 24.654 23.9226 24.5408 23.9632 24.4345C23.9745 24.4049 23.9522 24.1575 23.9136 23.8848L23.8435 23.3889L23.5331 23.3581C22.666 23.272 22.0109 22.839 21.6499 22.1134C21.3814 21.5737 21.3853 21.6715 21.5033 18.4637C21.559 16.9485 21.5311 11.3397 21.461 9.99071C21.3928 8.67652 21.2753 8.17548 20.8767 7.50094C20.5317 6.91689 19.8322 6.30045 19.222 6.04275C19.0711 5.97901 18.6114 5.83973 18.2004 5.73321C12.9637 4.3762 8.14135 2.61369 3.14687 0.231317L2.66196 0L2.57089 0.383205Z"
                        fill="black" />
                    <path fill-rule="evenodd" clip-rule="evenodd"
                        d="M44.8658 0.383205C44.9906 0.908739 45.0162 1.64288 44.9285 2.1814C44.7199 3.46095 43.9873 4.61478 42.942 5.3099C42.3886 5.67787 42.0011 5.84704 40.7957 6.24694C38.745 6.92724 37.384 7.32104 35.0081 7.92167C33.4091 8.32587 33.096 8.44186 32.5172 8.84422C32.1339 9.11068 31.6836 9.58142 31.4123 9.9993C31.2998 10.1726 31.2078 10.3289 31.2078 10.3466C31.2078 10.383 31.3572 10.4109 32.6608 10.6178C36.8837 11.288 40.9877 11.5872 45.4307 11.5488C47.3102 11.5325 47.4367 11.536 47.4367 11.6036C47.4367 11.7312 47.3179 12.2483 47.2258 12.5217C47.0824 12.9474 46.7397 13.5726 46.4505 13.936C45.6749 14.9109 44.5754 15.5101 43.2933 15.6567C42.937 15.6974 42.7056 15.6934 41.921 15.633C39.6537 15.4584 36.9651 15.1136 34.715 14.7087C33.1422 14.4257 32.641 14.4231 31.7889 14.6939C31.4094 14.8146 30.5308 15.2776 30.5882 15.3267C30.6308 15.3633 31.9561 16.1738 32.5593 16.5323C35.661 18.3754 38.9992 20.0469 42.3107 21.415C42.6987 21.5753 43.0295 21.7189 43.0457 21.7341C43.1255 21.8092 42.3599 22.5743 41.8887 22.8902C40.6934 23.6915 39.1398 23.8866 37.7815 23.406C37.1138 23.1699 34.5309 21.8301 32.4691 20.6505C31.225 19.9388 30.8006 19.7679 30.0803 19.6888C29.5859 19.6345 29.0079 19.6707 29.0079 19.756C29.0079 19.8111 29.7028 20.9415 30.3512 21.9415C31.125 23.1347 32.1867 24.6551 33.1062 25.8868C33.4121 26.2965 33.6717 26.6562 33.6831 26.6862C33.7283 26.8047 32.8262 26.9332 32.1624 26.9027C30.7656 26.8387 29.5021 26.1634 28.6672 25.0346C28.2491 24.4693 28.0815 24.0963 27.2431 21.8654C27.0139 21.2555 26.835 20.838 26.7999 20.8309C26.7511 20.8209 26.7415 20.9276 26.7435 21.457C26.7456 22.0133 26.7334 22.1351 26.6486 22.408C26.3028 23.5218 25.5078 24.2767 24.3873 24.5551L24.0064 24.6497L24.1854 24.6808C24.451 24.7269 24.8923 24.966 25.1216 25.1881C25.566 25.6185 25.7842 26.126 25.7836 26.728C25.7831 27.2581 25.6719 27.5553 25.2134 28.2515C24.3995 29.4872 23.8383 31.1485 23.7503 32.5825C23.7358 32.8181 23.7196 33.0059 23.7142 32.9999C23.7089 32.9938 23.6831 32.7635 23.6569 32.488C23.5117 30.962 22.9959 29.485 22.1482 28.168C21.7862 27.6056 21.6626 27.2994 21.6311 26.8867C21.5843 26.2725 21.792 25.7037 22.2258 25.2585C22.4949 24.9822 22.9305 24.7351 23.2416 24.6823C23.4081 24.654 23.514 24.5408 23.4734 24.4345C23.4621 24.4049 23.4844 24.1575 23.523 23.8848L23.5931 23.3889L23.9036 23.3581C24.7707 23.272 25.4258 22.839 25.7868 22.1134C26.0553 21.5737 26.0513 21.6715 25.9334 18.4637C25.8776 16.9485 25.9056 11.3397 25.9756 9.99071C26.0438 8.67652 26.1614 8.17548 26.5599 7.50094C26.905 6.91689 27.6045 6.30045 28.2146 6.04275C28.3656 5.97901 28.8253 5.83973 29.2362 5.73321C34.4729 4.3762 39.2953 2.61369 44.2898 0.231317L44.7747 0L44.8658 0.383205Z"
                        fill="black" />
                </svg>